<?xml version="1.0" encoding="UTF-8"?><svg id="_レイヤー_1" xmlns="http://www.w3.org/2000/svg" viewBox="0 0 4464.8 732"><defs><style>.cls-1{fill:#fff;}.cls-2{fill:#ff630f;}</style></defs><path class="cls-2" d="m3988.8,102.12v76.94l-128-128-128,128v-76.94L3836.3,0h52m0,311v195h-55v-195h-100.5v-55h100.5v-45.5h-55v-55h110l55,55h-55v45.5h100.5v55h-100.5Zm-112.03,195h-43.47l29.53-167.5h43.47l-29.53,167.5Zm169.07,0l-29.53-167.5h43.47l29.53,167.5h-43.47Zm153.47-140V0h55v421m-165-318.88V25.18l55,55v76.94l-55-55Zm0,153.88v-76.94l55,55v76.94l-55-55Z"/><path class="cls-1" d="m4354.8,311l110,110v311h-55v-366h-201v-55h119m-174,310v-200h91l110,110v91l-201-1Zm146-145h-91v91h91v-91Z"/><polygon class="cls-1" points="4409.8 732 4354.8 677 4409.8 677 4409.8 732"/><polygon class="cls-1" points="4098.8 732 4043.8 732 4043.8 311 4098.8 366 4098.8 732"/><path class="cls-1" d="m146.4,73.2v658.8H0v-73.2h73.2V0h146.4v73.2h-73.2Zm366,658.8V0h73.2v658.8h73.2v73.2h-146.4Z"/><path class="cls-1" d="m1390.8,732l-329.4-329.4-329.4,329.4v-103.52L1287.28,73.2h-555.28V0h658.8v73.2l-277.64,277.64,277.64,277.64v103.52Z"/><path class="cls-1" d="m1464,732V0h146.4v73.2h-73.2v585.6h512.4v-292.8h73.2v366h-658.8Z"/><path class="cls-1" d="m2708.4,732v-73.2h73.2V146.4h-439.2v585.6h-73.2V146.4h-73.2v-73.2h73.2V0h73.2v73.2h512.4v658.8h-146.4Z"/><path class="cls-1" d="m3294,219.6v512.4h-73.2V219.6h-292.8v-73.2h585.6V0h73.2v219.6h-292.8Z"/></svg>