<?xml version="1.0" encoding="UTF-8"?><svg id="_レイヤー_1" xmlns="http://www.w3.org/2000/svg" viewBox="0 0 732 903.83"><defs><style>.cls-1{fill:#fff;}.cls-2{fill:#ec6416;}</style></defs><path class="cls-2" d="m256,102.12v76.94l-45.5-45.5-82.5-82.5-82.5,82.5L0,179.06v-76.94L103.5,0h52m0,311v195h-55v-195H0v-55h100.5v-45.5h-55v-55h165v55s-55,0-55,0v45.5h100.5v55h-100.5Zm-112.03,195H0l29.53-167.5h43.47l-29.53,167.5Zm169.07,0l-29.53-167.5h43.47l29.53,167.5h-43.47Zm153.47-140V0h55v421M256,102.12V25.18l55,55v76.94l-55-55Zm0,153.88v-76.94l55,55v76.94l-55-55Z"/><path class="cls-1" d="m622,311l110,110v311h-55v-366h-201v-55h119m-174,310v-200h91l110,110v91l-201-1Zm146-145h-91v91h91v-91Z"/><polygon class="cls-1" points="705 731 677 732 622 677 705 677 705 731"/><polygon class="cls-1" points="366 732 311 732 311 311 366 366 366 732"/><path class="cls-1" d="m28.8,789.09v111.9H0v-13.35h15v-111.6h29.85v13.05h-16.05Zm79.35,111.9v-124.95h13.8v111.6h16.5v13.35h-30.3Z"/><path class="cls-1" d="m272.4,902.79l-41.1-57.9-46.95,56.4h-30v-13.5h23.7l78.6-95.1v-.75h-98.55v-13.35h114.45v16.35l-32.25,39.15,49.05,68.7h-16.95Z"/><path class="cls-1" d="m303.98,900.99v-124.79h36.6v13.35h-23.1v97.95h97.2v-57.45h13.35v70.95h-124.04Z"/><path class="cls-1" d="m540.75,901.13v-13.5h24.3v-87.75h-79.5v103.95h-13.5v-103.95h-17.4v-13.5h17.4v-14.55h13.5v14.55h93.15v114.75h-37.95Z"/><path class="cls-1" d="m679.05,818.34v84.9h-13.65v-84.9h-63.9v-13.65h116.39v-32.7h14.1v46.35h-52.95Z"/></svg>