<?xml version="1.0" encoding="UTF-8"?><svg id="_レイヤー_1" xmlns="http://www.w3.org/2000/svg" viewBox="0 0 1024 1024"><defs><style>.cls-1{fill:#fff;}.cls-2{fill:#ff630f;}</style></defs><rect x="497.93" width="526.07" height="1024"/><rect class="cls-2" width="512" height="1024"/><path class="cls-1" d="m402,248.12v76.94l-45.5-45.5-82.5-82.5-82.5,82.5-45.5,45.5v-76.94l103.5-102.12h52m0,311v195h-55v-195h-100.5v-55h100.5v-45.5h-55v-55h110l55,55h-55v45.5h100.5v55h-100.5Zm-112.03,195h-43.47l29.53-167.5h43.47l-29.53,167.5Zm169.07,0l-29.53-167.5h43.47l29.53,167.5h-43.47Zm153.47-140V0h55v567m-165-318.88v-76.94l55,55v76.94l-55-55Zm0,153.88v-76.94l55,55v76.94l-55-55Z"/><path class="cls-1" d="m768,457l110,110v311h-55v-366h-201v-55h119m-174,311v-201h91l110,110v91h-201Zm146-146h-91v91h91v-91Z"/><polygon class="cls-1" points="823 877 823 878 768 823 823 823 823 877"/><polygon class="cls-1" points="512 1024 457 1024 457 457 512 512 512 1024"/></svg>