<?xml version="1.0" encoding="UTF-8"?><svg id="_レイヤー_1" xmlns="http://www.w3.org/2000/svg" viewBox="0 0 1920 1080"><defs><style>.cls-1{fill:#fff;}.cls-2{fill:#ff630f;}</style></defs><rect x="960" width="960" height="1080"/><rect class="cls-2" width="960" height="1080"/><path class="cls-1" d="m850,276.12v76.94l-45.5-45.5-82.5-82.5-82.5,82.5-45.5,45.5v-76.94l103.5-102.12h52m0,311v195h-55v-195h-100.5v-55h100.5v-45.5h-55v-55h110l55,55h-55v45.5h100.5v55h-100.5Zm-112.03,195h-43.47l29.53-167.5h43.47l-29.53,167.5Zm169.07,0l-29.53-167.5h43.47l29.53,167.5h-43.47Zm153.47-140V0h55v595m-165-318.88v-76.94l55,55v76.94l-55-55Zm0,153.88v-76.94l55,55v76.94l-55-55Z"/><path class="cls-1" d="m1216,485l110,110v311h-55v-366h-201v-55h119m-174,311v-201h91l110,110v91h-201Zm146-146h-91v91h91v-91Z"/><polygon class="cls-1" points="1271 905 1271 906 1216 851 1271 851 1271 905"/><polygon class="cls-1" points="960 1080 905 1080 905 485 960 540 960 1080"/></svg>