<?xml version="1.0" encoding="UTF-8"?>
<svg id="_レイヤー_1" xmlns="http://www.w3.org/2000/svg" width="732px" height="896.33px" viewBox="0 0 732 896.33">
    <defs>
        <style>
            .cls-1 {
                fill: #fff;
            }

            .cls-2 {
                fill: #ff630f;
            }
        </style>
    </defs>
    <path class="cls-2"
        d="m256,102.12v76.94L128,51.06,0,179.06v-76.94L103.5,0h52m0,311v195h-55v-195H0v-55h100.5v-45.5h-55v-55h110l55,55h-55v45.5h100.5v55h-100.5Zm-112.03,195H0l29.53-167.5h43.47l-29.53,167.5Zm169.07,0l-29.53-167.5h43.47l29.53,167.5h-43.47Zm153.47-140V0h55v421M256,102.12V25.18l55,55v76.94l-55-55Zm0,153.88v-76.94l55,55v76.94l-55-55Z" />
    <path class="cls-1"
        d="m622,311l110,110v311h-55v-366h-201v-55h119m-174,310v-200h91l110,110v91l-201-1Zm146-145h-91v91h91v-91Z" />
    <polygon class="cls-1" points="677 732 622 677 677 677 677 732" />
    <polygon class="cls-1" points="366 732 311 732 311 311 366 366 366 732" />
    <path class="cls-1"
        d="m29.88,761.88v134.45H0v-14.94h14.94v-134.45h29.88v14.94h-14.94Zm74.69,134.45v-149.39h14.94v134.45h14.94v14.94h-29.88Z" />
    <path class="cls-1"
        d="m283.84,896.33l-67.22-67.22-67.22,67.22v-21.13l113.32-113.32h-113.32v-14.94h134.45v14.94l-56.66,56.66,56.66,56.66v21.13Z" />
    <path class="cls-1" d="m298.78,896.33v-149.39h29.88v14.94h-14.94v119.51h104.57v-59.76h14.94v74.69h-134.45Z" />
    <path class="cls-1"
        d="m552.73,896.33v-14.94h14.94v-104.57h-89.63v119.51h-14.94v-119.51h-14.94v-14.94h14.94v-14.94h14.94v14.94h104.57v134.45h-29.88Z" />
    <path class="cls-1" d="m672.24,791.76v104.57h-14.94v-104.57h-59.76v-14.94h119.51v-29.88h14.94v44.82h-59.76Z" />
</svg>