<?xml version="1.0" encoding="UTF-8"?><svg id="_レイヤー_1" xmlns="http://www.w3.org/2000/svg" viewBox="0 0 5102 761.83"><defs><style>.cls-1{fill:#fff;}.cls-2{fill:#ec6416;}</style></defs><path class="cls-2" d="m4626,102.12v76.94l-45.5-45.5-82.5-82.5-82.5,82.5-45.5,45.5v-76.94L4473.5,0h52m0,311v195h-55v-195h-100.5v-55h100.5v-45.5h-55v-55h165v55s-55,0-55,0v45.5h100.5v55h-100.5Zm-112.03,195h-43.47l29.53-167.5h43.47l-29.53,167.5Zm169.07,0l-29.53-167.5h43.47l29.53,167.5h-43.47Zm153.47-140V0h55v421m-165-318.88V25.18l55,55v76.94l-55-55Zm0,153.88v-76.94l55,55v76.94l-55-55Z"/><path class="cls-1" d="m4992,311l110,110v311h-55v-366h-201v-55h119m-174,310v-200h91l110,110v91l-201-1Zm146-145h-91v91h91v-91Z"/><polygon class="cls-1" points="5075 731 5047 732 4992 677 5075 677 5075 731"/><polygon class="cls-1" points="4736 732 4681 732 4681 311 4736 366 4736 732"/><path class="cls-1" d="m166.18,99.7v645.69H0v-77.03h86.56V24.4h172.24v75.3h-92.62Zm457.87,645.69V24.4h79.63v643.96h95.21v77.03h-174.84Z"/><path class="cls-1" d="m1571.86,755.78l-237.16-334.1-270.91,325.44h-173.1v-77.9h136.75L1480.98,120.47v-4.33h-568.66V39.11h660.41v94.35l-186.09,225.91,283.03,396.42h-97.81Z"/><path class="cls-1" d="m1754.1,745.39V25.26h211.19v77.03h-133.3v565.2h560.87v-331.5h77.03v409.4h-715.8Z"/><path class="cls-1" d="m3120.4,746.25v-77.9h140.22V162.01h-458.74v599.82h-77.9V162.01h-100.4v-77.9h100.4V.16h77.9v83.96h537.5v662.14h-218.98Z"/><path class="cls-1" d="m3918.47,268.47v489.9h-78.76v-489.9h-368.72v-78.76h671.65V1.03h81.36v267.45h-305.53Z"/></svg>